<?xml version="1.0" encoding="utf-8"?>
<!-- Generator: Adobe Illustrator 24.2.3, SVG Export Plug-In . SVG Version: 6.00 Build 0)  -->
<svg version="1.1" xmlns="http://www.w3.org/2000/svg" xmlns:xlink="http://www.w3.org/1999/xlink" x="0px" y="0px"
	 viewBox="0 0 2267.72 566.93" style="enable-background:new 0 0 2267.72 566.93;" xml:space="preserve">
<style type="text/css">
	.st0{stroke:#000000;stroke-width:5;stroke-miterlimit:10;}
	.st1{fill:#FFFFFF;stroke:#FFFFFF;stroke-width:5;stroke-miterlimit:10;}
	.st2{stroke:#FFFFFF;stroke-width:5;stroke-miterlimit:10;}
</style>
<g id="Lager_1">
	<rect class="st0" width="2267.72" height="566.93"/>
</g>
<g id="Lager_9">
	<path class="st1" d="M2008.05,225.38c0,0,17.04-7.93,17.04-43.92s-97.06-28.35-92.69-16.54c4.36,11.81-39.4,50.81-39.4,50.81
		s-33.36,60.09-19.34,96.88c0,0,8.57,29.15,14.03,36.79c5.45,7.63,77.43-16.68,77.43-16.68c4.36,7.31,21.81,74.48,21.81,74.48
		s-70.88,43.62-70.88,57.03s79.61,52.02,114.5,51.77c34.9-0.24,88.33-85.75,88.33-85.75l-61.07-114.66c0,0,122.14-10.91,126.5-27.26
		c0,0-8.72-70.88-34.9-91.6c-26.17-20.72-163.51,38.31-163.51,38.31"/>
	<path class="st1" d="M1696.47,360.33c0,0,17.96-35.42,30.43-66.65c8.05-20.16,13.82-38.58,11.01-44.61"/>
	<path class="st1" d="M1820.62,453.23c0,0-12.64,26.53,0,31.65c12.64,5.13,87.48,11.28,87.48,0c0-11.28-54.34-159.94-28.71-184.55
		c25.63-24.61,28.71-78.77,28.71-78.77s-74.84-35.04-77.92,15.2s5.13,111.75,5.13,111.75s-9.23,10.25-42.04,11.81
		c-32.81,1.56,26.66-77.43,24.61-138.77s-112.78-43.24-134.31-43.24c-21.53,0-11.28,90.22-5.13,104.46s48.46,10.89,48.46,10.89
		s-71.42,126.52-30.43,179.9c0,0,50.67,34.88,89.63,5.15s57.42-41.01,57.42-41.01"/>
	<path class="st1" d="M1513.97,491.29c19.29,8.12,161.32,5.32,217.45-35.75s-53.39-106.78-71.19-123.25s0-87.58,0-136.87
		s-108.15-26.01-102.68-17.8c5.48,8.21-84.62,154.67-84.62,154.67S1456.46,467.07,1513.97,491.29z"/>
	<path class="st1" d="M1591.59,278.65c0,0-4.56,48.32,10.94,71.12c15.5,22.79,39.2,34.65,14.59,61.09s-95.73,29.18-78.41-12.76
		C1556.03,356.14,1591.59,278.65,1591.59,278.65"/>
	<path class="st1" d="M1354.9,379.45l1,54.88c0,0,46.55,102.54,121.14,77.83c74.59-24.7,26.74-46.78,8-118.02
		c-15.33-58.28-19.61-125.34-19.25-172.57c0.36-48.1-73.13-100.43-105.06-41.31s18.77,166.63,18.77,166.63s-4.39-18.05-45.34-108.64
		c-40.95-90.59-98.15-51.71-103.85-46.9c-23.18,19.55-29.06,179.77-16.09,172.08l-12.19,115.82c-1.95,20.23,42.9,44.12,49.06,42.53
		c6.15-1.59,105.01-21.81,109.39-56.91c4.39-35.1-51.19-132.56-51.19-132.56s59.73,75.18,75.07,54.51
		c15.34-20.67,7.33-104.02,7.33-104.02"/>
	<path class="st1" d="M1465.8,221.56"/>
	<path class="st1" d="M886.9,519.18c0,0,10.85,21.7,49.72,20.33c38.88-1.37,146.08-42.82,143.53-59.71
		c-2.55-16.89-4.15-136.29-11.38-167.02c-10.57-44.9-143.13-137.8-118.8-185.32s-84.53-33.72-104.68,33.1S820.97,316.6,820.97,316.6
		l-13.11,179.77c-8.71,28.38,17.93,25.3,17.93,25.3s126.48,1.88,135.14-31.53c4.57-17.65-41.72-134.93-41.72-134.93l55.11-8.33
		c8.25,21.22-34.61,63.28-34.61,63.28"/>
	<path class="st1" d="M915.24,310.88l44.83-6.78c0,0-21.7-43.37-25.16-56.18C931.45,235.12,915.24,310.88,915.24,310.88z"/>
	<path class="st1" d="M1078.18,447.85c0,0,80.72,59.6,97.06,54.93s77.01-80.51,75.85-108.36c-1.17-27.85-78.18-39.83-93.35-60.83
		c-15.17-21,45.51-116.68,43.17-124.85c-2.33-8.17-116.68-51.34-128.35-46.88c-11.67,4.46-33.5,105.95-33.5,105.95
		S1074.62,352.32,1078.18,447.85z"/>
	<path class="st1" d="M1145.08,47.54"/>
	<circle class="st1" cx="1149.69" cy="107.02" r="64.54"/>
	<path class="st1" d="M670.01,238.24c0,0,36.74-71.26,43.19-123.08c6.46-51.82-91.71-20.72-107.44-17.58
		c-16.43,3.28-42.31,24.7-42.31,24.7l-18.43,129.03c21.18,43.33-36.6,237.87-43.06,217.77c-4.51-14.05,85.88,57.02,118.31,59.29
		s25.01-200.73,25.01-200.73l57.8-13.83c0,0-75.49,164.85-52.04,201.65c23.45,36.8,51.26,20.23,119.99,3.09
		s81.06-125.43,74.81-178.41c-6.25-52.98-73.57-9.17-73.57-9.17"/>
	<path class="st1" d="M627.15,246.83c0,0,167.81-42.55,184.77-17.22c16.96,25.33-81.09,141.57-54.03,172.8"/>
	<path class="st1" d="M239.77-11.56"/>
	<path class="st1" d="M214.27,47.06c0,0-31.59,140.19-84.91,159.94s3.95,134.27,7.9,167.84s159.94-53.31,159.94-53.31
		s-43.73,99.55-27.94,131.15s104.94,107.77,134.56,90c29.62-17.77,124.4-118.47,126.37-150.07s-119.5-9.63-119.5-9.63
		s3-76.71,22.75-86.85c0,0,72.99-34.46,111.58-44.82c5.84-1.57,10.9-2.58,14.79-2.84c0,0,13.46-81.81,3.64-126.18
		c-3.74-16.9-10.86-28.38-23.39-27.83c-45.41,1.97-215.23,75.03-215.23,75.03S382.1,98.4,360.38,64.83S214.27,47.06,214.27,47.06z"
		/>
</g>
<g id="Lager_8">
	<path class="st2" d="M2049.23,199.91c0,0,17.04-7.93,17.04-43.92s-97.06-28.35-92.69-16.54c4.36,11.81-39.4,50.81-39.4,50.81
		s-33.36,60.09-19.34,96.88c0,0,8.57,29.15,14.03,36.79c5.45,7.63,77.43-16.68,77.43-16.68c4.36,7.31,21.81,74.48,21.81,74.48
		s-70.88,43.62-70.88,57.03c0,13.41,79.61,52.02,114.5,51.77c34.9-0.24,88.33-85.75,88.33-85.75l-61.07-114.66
		c0,0,122.14-10.91,126.5-27.26c0,0-8.72-70.88-34.9-91.6c-26.17-20.72-163.51,38.31-163.51,38.31"/>
</g>
<g id="Lager_7">
	<path class="st2" d="M1737.64,334.87c0,0,17.96-35.42,30.43-66.65c8.05-20.16,13.82-38.58,11.01-44.61"/>
	<path class="st2" d="M1861.8,427.77c0,0-12.64,26.53,0,31.65c12.64,5.13,87.48,11.28,87.48,0c0-11.28-54.34-159.94-28.71-184.55
		c25.63-24.61,28.71-78.77,28.71-78.77s-74.84-35.04-77.92,15.2s5.13,111.75,5.13,111.75s-9.23,10.25-42.04,11.81
		s26.66-77.43,24.61-138.77s-112.78-43.24-134.31-43.24c-21.53,0-11.28,90.22-5.13,104.46c6.15,14.24,48.46,10.89,48.46,10.89
		s-71.42,126.52-30.43,179.9c0,0,50.67,34.88,89.63,5.15s57.42-41.01,57.42-41.01"/>
</g>
<g id="Lager_6">
	<path class="st2" d="M1555.15,465.82c19.29,8.12,161.32,5.32,217.45-35.75s-53.39-106.78-71.19-123.25
		c-17.8-16.46,0-87.58,0-136.87s-108.15-26.01-102.68-17.8c5.48,8.21-84.62,154.67-84.62,154.67S1497.64,441.61,1555.15,465.82z"/>
	<path class="st2" d="M1632.77,253.18c0,0-4.56,48.32,10.94,71.12s39.2,34.65,14.59,61.09c-24.62,26.44-95.73,29.18-78.41-12.76
		C1597.21,330.68,1632.77,253.18,1632.77,253.18"/>
	<path class="st1" d="M1614.19,294.14"/>
</g>
<g id="Lager_5">
	<path class="st2" d="M1396.08,353.98l1,54.88c0,0,46.55,102.54,121.14,77.83s26.74-46.78,8-118.02
		c-15.33-58.28-19.61-125.34-19.25-172.57c0.36-48.1-73.13-100.43-105.06-41.31s18.77,166.63,18.77,166.63s-4.39-18.05-45.34-108.64
		c-40.95-90.59-98.15-51.71-103.85-46.9c-23.18,19.55-29.06,179.77-16.09,172.08l-12.19,115.82c-1.95,20.23,42.9,44.12,49.06,42.53
		c6.15-1.59,105.01-21.81,109.39-56.91c4.39-35.1-51.19-132.56-51.19-132.56s59.73,75.18,75.07,54.51
		c15.34-20.67,7.33-104.02,7.33-104.02"/>
	<path class="st2" d="M1506.98,196.1"/>
</g>
<g id="Lager_4">
	<path class="st2" d="M928.08,493.72c0,0,10.85,21.7,49.72,20.33c38.88-1.37,146.08-42.82,143.53-59.71
		c-2.55-16.89-4.15-136.29-11.38-167.02c-10.57-44.9-143.13-137.8-118.8-185.32s-84.53-33.72-104.68,33.1
		c-20.16,66.82-24.32,156.04-24.32,156.04l-13.11,179.77c-8.71,28.38,17.93,25.3,17.93,25.3s126.48,1.88,135.14-31.53
		c4.57-17.65-41.72-134.93-41.72-134.93l55.11-8.33c8.25,21.22-34.61,63.28-34.61,63.28"/>
	<path class="st2" d="M956.41,285.42l44.83-6.78c0,0-21.7-43.37-25.16-56.18C972.63,209.65,956.41,285.42,956.41,285.42z"/>
	<path class="st2" d="M1119.36,422.39c0,0,80.72,59.6,97.06,54.93c16.34-4.67,77.01-80.51,75.85-108.36s-78.18-39.83-93.35-60.83
		c-15.17-21,45.51-116.68,43.17-124.85c-2.33-8.17-116.68-51.34-128.35-46.88c-11.67,4.46-33.5,105.95-33.5,105.95
		S1115.8,326.86,1119.36,422.39z"/>
	<path class="st2" d="M1186.26,22.08"/>
	<circle class="st2" cx="1190.87" cy="81.56" r="64.54"/>
</g>
<g id="Lager_3">
	<path class="st2" d="M711.18,212.78c0,0,36.74-71.26,43.19-123.08s-91.71-20.72-107.44-17.58c-16.43,3.28-42.31,24.7-42.31,24.7
		L586.2,225.84c21.18,43.33-36.6,237.87-43.06,217.77c-4.51-14.05,85.88,57.02,118.31,59.29c32.43,2.26,25.01-200.73,25.01-200.73
		l57.8-13.83c0,0-75.49,164.85-52.04,201.65s51.26,20.23,119.99,3.09s81.06-125.43,74.81-178.41s-73.57-9.17-73.57-9.17"/>
	<path class="st2" d="M668.33,221.37c0,0,167.81-42.55,184.77-17.22S772,345.72,799.07,376.95"/>
</g>
<g id="Lager_10">
	<path class="st1" d="M1630.32,258.55c0,0,1.45,58.78,13.39,65.75s27.22,35.52,25.05,42.52c-2.17,7-12.45,21-15.73,23.35
		c-3.28,2.35-16.44,9.06-16.44,9.06s18.16-33.36,7.69-42.46c-10.47-9.1-21.47-30.04-21.21-38.69c0.27-8.65-2.16-38.84-2.16-38.84"/>
	<polygon class="st1" points="966.64,242.79 981.93,281.56 1001.24,278.64 974.69,221 	"/>
</g>
<g id="Lager_2">
	<path class="st2" d="M280.95-37.03"/>
	<path class="st2" d="M255.45,21.6c0,0-31.59,140.19-84.91,159.94s3.95,134.27,7.9,167.84s159.94-53.31,159.94-53.31
		s-43.73,99.55-27.94,131.15c15.8,31.59,104.94,107.77,134.56,90c29.62-17.77,124.4-118.47,126.37-150.07s-119.5-9.63-119.5-9.63
		s3-76.71,22.75-86.85c0,0,72.99-34.46,111.58-44.82c5.84-1.57,10.9-2.58,14.79-2.84c0,0,13.46-81.81,3.64-126.18
		c-3.74-16.9-10.86-28.38-23.39-27.83c-45.41,1.97-215.23,75.03-215.23,75.03s57.26-71.08,35.54-104.65S255.45,21.6,255.45,21.6z"/>
</g>
</svg>
